<svg width="31" height="26" viewBox="0 0 31 26" fill="none" xmlns="http://www.w3.org/2000/svg">
    <path d="M30.8571 22.1429C30.8571 21.4397 30.2746 20.8571 29.5714 20.8571H1.28571C0.582589 20.8571 0 21.4397 0 22.1429V24.7143C0 25.4174 0.582589 26 1.28571 26H29.5714C30.2746 26 30.8571 25.4174 30.8571 24.7143V22.1429ZM30.8571 11.8571C30.8571 11.154 30.2746 10.5714 29.5714 10.5714H1.28571C0.582589 10.5714 0 11.154 0 11.8571V14.4286C0 15.1317 0.582589 15.7143 1.28571 15.7143H29.5714C30.2746 15.7143 30.8571 15.1317 30.8571 14.4286V11.8571ZM30.8571 1.57143C30.8571 0.868302 30.2746 0.285714 29.5714 0.285714H1.28571C0.582589 0.285714 0 0.868302 0 1.57143V4.14286C0 4.84598 0.582589 5.42857 1.28571 5.42857H29.5714C30.2746 5.42857 30.8571 4.84598 30.8571 4.14286V1.57143Z" fill="white"/>
</svg>
